<svg xmlns="http://www.w3.org/2000/svg" viewBox="0 0 61.12 61.12"><defs><style>.cls-1{fill:#00a0a8;}.cls-2{fill:#fff;}</style></defs><g id="レイヤー_2" data-name="レイヤー 2"><g id="デザイン"><path class="cls-1" d="M61.12,30.56A30.56,30.56,0,1,1,30.56,0,30.56,30.56,0,0,1,61.12,30.56Z"/><path class="cls-2" d="M24.82,46a36.48,36.48,0,0,0-5,.19,19.75,19.75,0,0,1,1-4.94,19.07,19.07,0,0,1,5.29-7.58A55.77,55.77,0,0,1,32.51,29c3.55-2.43,4.64-3.71,4.64-5.68,0-2.63-2-4.25-5.34-4.25a5.43,5.43,0,0,0-4.9,2.28,7.32,7.32,0,0,0-1.2,3.55l-5.52-.65a11.56,11.56,0,0,1,2.66-6.18c1.93-2.24,5-3.44,8.85-3.44,6.76,0,10.93,3.24,10.93,8.54a7.85,7.85,0,0,1-2.74,6.18c-1.08,1-1.47,1.31-6.49,4.75A34.5,34.5,0,0,0,28.8,38a9.33,9.33,0,0,0-2.2,3.48H37.42a41.15,41.15,0,0,0,5.64-.31v5.1C41.24,46.1,39.7,46,37.22,46Z"/></g></g></svg>