<svg xmlns="http://www.w3.org/2000/svg" viewBox="0 0 61.12 61.12"><defs><style>.cls-1{fill:#00a0a8;}.cls-2{fill:#fff;}</style></defs><g id="レイヤー_2" data-name="レイヤー 2"><g id="デザイン"><path class="cls-1" d="M61.12,30.56A30.56,30.56,0,1,1,30.56,0,30.56,30.56,0,0,1,61.12,30.56Z"/><path class="cls-2" d="M24.86,37.64c.5,1.77.85,2.39,1.82,3.16a7.25,7.25,0,0,0,4.67,1.51c3.83,0,6.26-2,6.26-5a4.5,4.5,0,0,0-2.16-4.06A10.06,10.06,0,0,0,31,32.3a31.78,31.78,0,0,0-4.13.2V27.71a27.32,27.32,0,0,0,3.75.19c3.86,0,6.14-1.78,6.14-4.75,0-2.67-1.82-4.18-5.1-4.18a6.46,6.46,0,0,0-4.21,1.2,5.69,5.69,0,0,0-1.62,3l-5.53-.93c1-2.86,1.86-4.21,3.67-5.52a12.54,12.54,0,0,1,7.57-2.13c6.46,0,10.63,3.25,10.63,8.27a7.05,7.05,0,0,1-2.67,5.68A9.64,9.64,0,0,1,35.75,30c2.75.43,4.18,1.09,5.53,2.59a7.45,7.45,0,0,1,1.85,5.33,8.15,8.15,0,0,1-2.31,5.64c-2.13,2.05-5.37,3.13-9.51,3.13-4.52,0-7.61-1.15-9.81-3.67a10.17,10.17,0,0,1-2.17-4.32Z"/></g></g></svg>