<svg xmlns="http://www.w3.org/2000/svg" viewBox="0 0 96.13 114"><defs><style>.cls-1{fill:#00a0a8;}</style></defs><g id="レイヤー_2" data-name="レイヤー 2"><g id="デザイン"><path class="cls-1" d="M83.18,85.08A50.79,50.79,0,0,1,62,96.49l9.69,16.78A1.45,1.45,0,0,0,73,114h.11a1.46,1.46,0,0,0,1.25-.92l4.48-11.51L91,103.43a1.5,1.5,0,0,0,1.43-.62,1.47,1.47,0,0,0,0-1.55Z"/><path class="cls-1" d="M13.2,84.17,3.61,100.8a1.45,1.45,0,0,0,.05,1.55,1.47,1.47,0,0,0,1.43.62l12.21-1.86,4.49,11.5a1.48,1.48,0,0,0,1.25.93h.11a1.46,1.46,0,0,0,1.26-.73l9.33-16.15A51,51,0,0,1,13.2,84.17Z"/><path class="cls-1" d="M48.07,96.13a48.06,48.06,0,0,1-35.4-80.58,1.46,1.46,0,1,1,2.15,2A45.13,45.13,0,1,0,25.45,9a1.48,1.48,0,0,1-2-.53,1.46,1.46,0,0,1,.53-2A48.07,48.07,0,1,1,48.07,96.13Z"/><path class="cls-1" d="M66.38,18.51H29.75a3.15,3.15,0,0,0-3.15,3.15V74.12a3.16,3.16,0,0,0,3.15,3.15H66.38a3.16,3.16,0,0,0,3.15-3.15V21.66A3.16,3.16,0,0,0,66.38,18.51ZM42.73,21a.41.41,0,0,1,.41-.4H53a.4.4,0,0,1,.4.4v1a.4.4,0,0,1-.4.41H43.14a.41.41,0,0,1-.41-.41Zm5.33,53.06a2.62,2.62,0,1,1,2.62-2.62A2.61,2.61,0,0,1,48.06,74.09Zm16.75-9a.94.94,0,0,1-.94.93H32.25a.93.93,0,0,1-.93-.93V25.5a.93.93,0,0,1,.93-.93H63.87a.94.94,0,0,1,.94.93Z"/></g></g></svg>