<svg xmlns="http://www.w3.org/2000/svg" viewBox="0 0 524.96 58.19"><defs><style>.cls-1{fill:#231815;}.cls-2{font-size:18.42px;fill:#666;font-family:UDShinGoPro-DeBold-90ms-RKSJ-H, A-OTF UD Shin Go Pro;}</style></defs><g id="レイヤー_2" data-name="レイヤー 2"><g id="デザイン"><path class="cls-1" d="M12.36,7.62V9.25H8.81v1.56h3.11v1.7H8.74v3H7.85l2.29,6.89H8.29L7.85,21H5.4L5,22.65H4.37l-.08.74c0,24.68,17.62,28.43,21.92,28.43s18.87-3.07,18.87-12.66c0-8.25-10-7.62-11.25-7.62s-8,.59-9.33.59-13.32.51-13.32-11.25C11.18,1,32.5,0,35.83,0s23,.78,23,21c0,14.62-3.48,18.21-3.48,18.21l.59-9C55.89,7.77,37.24,5.26,34.5,5.26s-17,1-17,9.4c0,10.66,13.65,8.51,15.18,8.51s18.06.15,18.06,14.29c0,18.73-23.51,20.73-25.61,20.73S0,56.41,0,33.16c0-8.81,4.22-13.84,4.22-13.84l1.41-3.85H6.88V7.55ZM6.68,17.37l-.84,2.22H7.51Z"/><path class="cls-1" d="M65.09,41.16V20H76.66v4H69.91v4.77h6.31v3.95H69.91v8.44Z"/><path class="cls-1" d="M95.75,41.16h-5l-1.24-4.93H84.64l-1.15,4.93H78.61L84.2,20h6.12ZM89,32.58,88,28.33c-.28-1.26-.64-3.16-.91-4.44h0c-.28,1.28-.63,3.23-.88,4.44l-1,4.25Z"/><path class="cls-1" d="M109.13,24.6a8.22,8.22,0,0,0-3.73-.88c-1.86,0-2.77.91-2.77,2s.88,1.75,3.46,2.93c3.37,1.51,4.77,3.6,4.77,6.23,0,3.87-2.93,6.61-8.06,6.61a12.24,12.24,0,0,1-5.24-1.1l.82-4.06a10.83,10.83,0,0,0,4.61,1.1c2,0,3-.88,3-2.14s-1-2-3.16-3c-3.34-1.53-5.07-3.62-5.07-6.14,0-3.59,2.74-6.42,7.65-6.42a10.72,10.72,0,0,1,4.61.93Z"/><path class="cls-1" d="M129.79,40.86a9.71,9.71,0,0,1-3.54.58c-4.61,0-7.54-2.88-7.54-7.82,0-4.66,3-8.17,8.2-8.17a9.82,9.82,0,0,1,3,.49l-.68,3.65a6.47,6.47,0,0,0-2.12-.36c-2.19,0-3.59,1.71-3.56,4.2,0,2.69,1.53,4.2,3.59,4.2a5.65,5.65,0,0,0,2.17-.39Z"/><path class="cls-1" d="M145.91,33.35c0,6-3.86,8.12-7.24,8.12-4.28,0-7.21-3-7.21-7.93,0-5.18,3.13-8.12,7.38-8.12C143.25,25.42,145.91,28.71,145.91,33.35Zm-7.18-4.42c-1.81,0-2.39,2.36-2.39,4.5,0,2.58.74,4.53,2.39,4.53s2.3-2.06,2.3-4.53C141,31.15,140.37,28.93,138.73,28.93Z"/><path class="cls-1" d="M157.73,30.14a4.82,4.82,0,0,0-1.18-.11A2.72,2.72,0,0,0,153.76,32a4.32,4.32,0,0,0-.19,1.45v7.73h-4.83V30.72c0-2-.06-3.6-.11-5h4.14L153,28.3h.11a4.09,4.09,0,0,1,3.65-2.88,5.34,5.34,0,0,1,1,.08Z"/><path class="cls-1" d="M164.29,27.67a4.86,4.86,0,0,1,4.28-2.25c3.4,0,5.73,3.29,5.73,7.9,0,5.65-3.15,8.15-6.17,8.15a3.87,3.87,0,0,1-3.29-1.57h-.08v7.41h-4.83V30.83c0-1.93-.06-3.63-.11-5.11H164l.24,2Zm.47,7.3c0,1.56.87,2.71,2.11,2.71,1.7,0,2.55-1.78,2.55-4.19,0-2.58-.88-4.17-2.5-4.17A2.38,2.38,0,0,0,164.76,32Z"/><path class="cls-1" d="M190.67,33.35c0,6-3.86,8.12-7.24,8.12-4.28,0-7.21-3-7.21-7.93,0-5.18,3.13-8.12,7.38-8.12C188,25.42,190.67,28.71,190.67,33.35Zm-7.18-4.42c-1.81,0-2.39,2.36-2.39,4.5,0,2.58.74,4.53,2.39,4.53s2.3-2.06,2.3-4.53C185.79,31.15,185.13,28.93,183.49,28.93Z"/><path class="cls-1" d="M202.5,30.14a5,5,0,0,0-1.18-.11,2.73,2.73,0,0,0-2.8,1.95,4.32,4.32,0,0,0-.19,1.45v7.73H193.5V30.72c0-2-.06-3.6-.11-5h4.14l.19,2.58h.11a4.09,4.09,0,0,1,3.65-2.88,5.53,5.53,0,0,1,1,.08Z"/><path class="cls-1" d="M216.87,37.52a20.18,20.18,0,0,0,.24,3.64h-4.33l-.27-1.48h-.09a4.77,4.77,0,0,1-4,1.79,4.56,4.56,0,0,1-4.64-4.75c0-4.09,3.65-5.84,8.2-5.87,0-1.18-.52-2-2.47-2a7.44,7.44,0,0,0-3.81,1.05l-.88-3.13a12,12,0,0,1,5.65-1.32c5.1,0,6.37,3.24,6.37,6.67Zm-4.69-3.65c-2,0-3.71.57-3.71,2.36A1.6,1.6,0,0,0,210.09,38a2.07,2.07,0,0,0,2.09-2.17Z"/><path class="cls-1" d="M221,22.9l4.77-1.35v4.17H229v3.49h-3.21V35c0,1.81.58,2.47,1.73,2.47a4.29,4.29,0,0,0,1.26-.14l0,3.73a10.76,10.76,0,0,1-3,.36c-4.75,0-4.83-4.06-4.83-5.82V29.21h-1.89V25.72H221Z"/><path class="cls-1" d="M233.87,24a2.46,2.46,0,1,1,2.47-2.45A2.38,2.38,0,0,1,233.87,24Zm2.41,17.16h-4.82V25.72h4.82Z"/><path class="cls-1" d="M253.37,33.35c0,6-3.87,8.12-7.24,8.12-4.28,0-7.21-3-7.21-7.93,0-5.18,3.12-8.12,7.38-8.12S253.37,28.71,253.37,33.35Zm-7.18-4.42c-1.82,0-2.39,2.36-2.39,4.5,0,2.58.74,4.53,2.39,4.53s2.3-2.06,2.3-4.53C248.49,31.15,247.83,28.93,246.19,28.93Z"/><path class="cls-1" d="M269.8,41.16H265v-9c0-1.62-.49-2.8-1.86-2.8-1,0-2.09.74-2.09,2.71v9H256.2V30.66c0-1.84-.06-3.48-.11-4.94h4.14l.25,2h.08a5.1,5.1,0,0,1,4.28-2.25c3.23,0,5,2.33,5,6.34Z"/><path class="cls-1" d="M273.09,38.48a2.84,2.84,0,0,1,2.8-3,2.76,2.76,0,0,1,2.8,3,2.81,2.81,0,1,1-5.6,0Z"/><path class="cls-1" d="M286.2,41.16h-4.83V19.09h4.83Z"/><path class="cls-1" d="M290.34,22.9l4.77-1.35v4.17h3.21v3.49h-3.21V35c0,1.81.58,2.47,1.73,2.47a4.29,4.29,0,0,0,1.26-.14l0,3.73a10.65,10.65,0,0,1-3,.36c-4.75,0-4.83-4.06-4.83-5.82V29.21h-1.89V25.72h1.89Z"/><path class="cls-1" d="M314.42,36.45c0,1.7.06,3.48.11,4.71h-4.22l-.22-2H310A4.67,4.67,0,0,1,306,41.47c-3.54,0-5.84-3.4-5.84-8,0-5.24,2.85-8.09,6.06-8.09A3.65,3.65,0,0,1,309.51,27h.09v-8h4.82ZM309.6,32c0-2.14-1.27-2.77-2.09-2.77-1.75,0-2.55,1.92-2.55,4.25,0,2.66,1,4.06,2.52,4.06.91,0,2.12-.57,2.12-2.69Z"/><text class="cls-2" transform="translate(340.75 39.38)">株式会社エフエーエス</text></g></g></svg>