<svg xmlns="http://www.w3.org/2000/svg" viewBox="0 0 236.94 236.98"><defs><style>.cls-1{fill:#231815;}.cls-2{fill:#fff;}</style></defs><g id="レイヤー_2" data-name="レイヤー 2"><g id="デザイン"><path class="cls-1" d="M159.88,150.77a6,6,0,0,1,0,8.41l-.74.74a5.94,5.94,0,0,1-8.4,0l-20-20a6,6,0,0,1,0-8.41l.74-.74a6,6,0,0,1,8.41,0Z"/><path d="M209.09,233.84c3.32,3.32,7.9,4.13,10.22,1.81l16.3-16.3c2.33-2.32,1.51-6.9-1.81-10.22l-1.28-1.29-24.71,24.72Z"/><path d="M167.26,142.59c-3.33-3.33-7.9-4.14-10.22-1.82l-16.31,16.3c-2.32,2.33-1.51,6.9,1.82,10.23l1.39,1.39L168.65,144Z"/><rect x="170.76" y="152.2" width="34.95" height="72.14" transform="translate(-77.99 188.23) rotate(-45)"/><rect class="cls-2" x="142.04" y="155" width="34.95" height="9.09" transform="translate(-66.1 159.52) rotate(-45)"/><rect class="cls-2" x="199.47" y="212.44" width="34.95" height="9.09" transform="translate(-89.89 216.94) rotate(-45)"/><circle class="cls-2" cx="83.21" cy="83.25" r="74.86"/><path class="cls-1" d="M83.21,166.49A83.25,83.25,0,0,1,24.34,24.38,83.25,83.25,0,0,1,142.07,142.11,82.71,82.71,0,0,1,83.21,166.49Zm0-149.72a66.48,66.48,0,1,0,47,19.47A66.08,66.08,0,0,0,83.21,16.77Z"/><path d="M27.25,85.92C24.93,98.8,30,114.15,41.69,125.86c11.5,11.5,26.49,16.57,39.21,14.57a230.74,230.74,0,0,1-27.77-23.85A224.15,224.15,0,0,1,27.25,85.92Z"/></g></g></svg>