<svg xmlns="http://www.w3.org/2000/svg" viewBox="0 0 201.12 208.31"><defs><style>.cls-1{fill:#231815;}.cls-2{fill:#fff;}</style></defs><g id="レイヤー_2" data-name="レイヤー 2"><g id="デザイン"><path class="cls-1" d="M82.16,2.31c-23.58,0-42.7,15.53-42.7,34.7,0,11.06,6.38,20.91,16.31,27.26l-.06,0s.38,10.8-2.91,13C51.93,77.78,69,70,69,70h0A51.8,51.8,0,0,0,82.16,71.7c23.59,0,42.71-15.53,42.71-34.69S105.75,2.31,82.16,2.31Z"/><path class="cls-1" d="M161.66,29.58c0-16.34-16.3-29.58-36.4-29.58A43.42,43.42,0,0,0,110.1,2.69c13.39,7.31,22.21,19.74,22.21,33.83a35.42,35.42,0,0,1-8.43,22.61c.46,0,.91,0,1.38,0a44,44,0,0,0,11.21-1.44h0s14.58,6.61,13.83,6.12C147.48,62,147.8,52.8,147.8,52.8l-.05,0C156.22,47.41,161.66,39,161.66,29.58Z"/><path class="cls-2" d="M67.22,37.93A6.24,6.24,0,1,1,61,31.69,6.24,6.24,0,0,1,67.22,37.93Z"/><path class="cls-2" d="M88.41,37.93a6.25,6.25,0,1,1-6.25-6.24A6.25,6.25,0,0,1,88.41,37.93Z"/><path class="cls-2" d="M109.59,37.93a6.25,6.25,0,1,1-6.25-6.24A6.25,6.25,0,0,1,109.59,37.93Z"/><path class="cls-1" d="M126.41,135.81A25.86,25.86,0,1,1,100.56,110,25.85,25.85,0,0,1,126.41,135.81Z"/><path class="cls-1" d="M143.63,208.31c0-.26,0-.52,0-.78a43.09,43.09,0,1,0-86.18,0c0,.26,0,.52,0,.78Z"/><path class="cls-1" d="M187.72,119.66a20.09,20.09,0,1,1-20.08-20.09A20.09,20.09,0,0,1,187.72,119.66Z"/><path class="cls-1" d="M201.1,176c0-.21,0-.41,0-.61a33.48,33.48,0,0,0-67,0c0,.2,0,.4,0,.61Z"/><path class="cls-1" d="M53.57,119.66A20.09,20.09,0,1,1,33.48,99.57,20.1,20.1,0,0,1,53.57,119.66Z"/><path class="cls-1" d="M66.94,176c0-.21,0-.41,0-.61a33.48,33.48,0,0,0-67,0c0,.2,0,.4,0,.61Z"/></g></g></svg>