<svg xmlns="http://www.w3.org/2000/svg" viewBox="0 0 165.59 194.52"><defs><style>.cls-1{fill:#fff;}</style></defs><g id="レイヤー_2" data-name="レイヤー 2"><g id="デザイン"><path d="M0,0V194.52H165.59V0ZM26.35,8.4a9.07,9.07,0,0,1,9.15,9,9.14,9.14,0,0,1-18.28,0A9,9,0,0,1,26.35,8.4ZM145.76,155.92H19.84V32.46H145.76ZM82.53,19.84H39.44v-7H82.53Zm62.76,164.55H19.74V180.8H145.29Z"/><rect class="cls-1" x="19.74" y="161.91" width="11.12" height="11.12" rx="5"/><rect class="cls-1" x="37.28" y="161.91" width="11.12" height="11.12" rx="5"/><rect class="cls-1" x="54.83" y="161.91" width="11.12" height="11.12" rx="5"/><rect class="cls-1" x="134.17" y="161.91" width="11.12" height="11.12" rx="5"/></g></g></svg>