<svg xmlns="http://www.w3.org/2000/svg" viewBox="0 0 83.15 83.84"><defs><style>.cls-1{fill:#00a0a8;}</style></defs><g id="レイヤー_2" data-name="レイヤー 2"><g id="デザイン"><path class="cls-1" d="M34.51,65.23H6.25V17.56h5.84V57.78a2.4,2.4,0,0,0,2.39,2.4H38.63l6.25-6.26H18.34V6.25h23V18.62a3,3,0,0,0,3,3H56.76V42.05L63,35.79V16.22a1.66,1.66,0,0,0-.42-1L47.56.42a1.66,1.66,0,0,0-1-.42H14.48a2.39,2.39,0,0,0-2.39,2.39v8.92H2.39A2.39,2.39,0,0,0,0,13.7V69.09a2.39,2.39,0,0,0,2.39,2.39H32.94ZM47.33,9l6.77,6.67H47.33ZM37.92,65.73s-4.54,18.11-4.54,18.11L51.47,79.3,75.18,55.56,61.64,42Zm4.14,13.62-4.19-4.2,1.89-7.56,9.87,9.86Zm40.53-31.2-4.77,4.77L64.27,39.38l4.78-4.78a1.9,1.9,0,0,1,2.68,0L82.59,45.46A1.91,1.91,0,0,1,82.59,48.15Z"/></g></g></svg>