<svg xmlns="http://www.w3.org/2000/svg" viewBox="0 0 132.58 73.4"><defs><style>.cls-1,.cls-2{fill:#00a0a8;}.cls-2{stroke:#fff;stroke-miterlimit:10;stroke-width:2px;}</style></defs><g id="レイヤー_2" data-name="レイヤー 2"><g id="デザイン"><path class="cls-1" d="M28.79,36.22a7.51,7.51,0,0,0,5.49-2.33,8.17,8.17,0,0,0,2.22-5.7c0-4.35-3.46-8-7.55-8.09H28.9a7.79,7.79,0,0,0-5.55,2.5A8.36,8.36,0,0,0,21,28.32a7.93,7.93,0,0,0,2.31,5.51,7.65,7.65,0,0,0,5.44,2.39Z"/><path class="cls-1" d="M39.74,53.07a1,1,0,0,0,1-1V46.11C40.76,42,38,38.54,34.4,38a39.4,39.4,0,0,0-10.92,0c-3.64.49-6.38,4-6.38,8.07V52a1,1,0,0,0,1,1Z"/><path class="cls-1" d="M70.69,57.57a1.13,1.13,0,0,0-1.13-1.16H3.5a1.25,1.25,0,0,1-1.25-1.25V7.22A1.25,1.25,0,0,1,3.5,6H6.13v7.3a2.44,2.44,0,0,0,2.43,2.44h35A2.45,2.45,0,0,0,46,13.27V6h34.2a1.13,1.13,0,0,0,0-2.25H46V2.44A2.44,2.44,0,0,0,43.6,0h-35A2.43,2.43,0,0,0,6.13,2.44V3.72H3.5A3.5,3.5,0,0,0,0,7.22V55.16a3.51,3.51,0,0,0,3.5,3.51h66A1.16,1.16,0,0,0,70.69,57.57ZM35,2.87h6.64v2H37.15V6.69h4.24v2H37.15v2h4.74v2H35Zm-8.32,0,2.41,6.42h0l2.46-6.42h2.31l-4,9.79H28.13L24.22,2.87Zm-5.62,0h2.16v9.79H21.06Zm-7.31,0h2.16v7.8h4v2H13.75ZM10,3.34A1.51,1.51,0,1,1,8.5,4.85,1.52,1.52,0,0,1,10,3.34Z"/><path class="cls-1" d="M82.37,26.19V15.77a4.49,4.49,0,0,0-4.48-4.48H56.36a4.49,4.49,0,0,0-4.48,4.48V26.19a4.48,4.48,0,0,0,4.48,4.47H69l5.3,4.44a.89.89,0,0,0,.55.2.92.92,0,0,0,.47-.14.87.87,0,0,0,.37-.94l-.91-3.56h3.51A4.14,4.14,0,0,0,82.37,26.19Z"/><path class="cls-1" d="M105.72,35.41h.06a16.43,16.43,0,0,0,12-5.08,18,18,0,0,0,4.85-12.52c0-9.53-7.54-17.65-16.47-17.73H106A17,17,0,0,0,93.91,5.57a18.25,18.25,0,0,0-5.15,12.54,17.43,17.43,0,0,0,5.07,12.06A16.7,16.7,0,0,0,105.72,35.41Z"/><path class="cls-1" d="M118.73,40.61a93.28,93.28,0,0,0-12.37-.86h-.26a93.23,93.23,0,0,0-12.59.86c-7.91,1.08-13.88,8.69-13.88,17.7V72.18a1.22,1.22,0,0,0,1.21,1.22h50.53a1.22,1.22,0,0,0,1.21-1.22V58.3C132.58,49.3,126.63,41.7,118.73,40.61Z"/><path class="cls-1" d="M72.4,65.53H53.83l-.68-5.36L38.75,60l-.7,5.53H19.48a2.91,2.91,0,0,0-2.92,2.91v2a2.92,2.92,0,0,0,2.92,2.92H72.4a2.92,2.92,0,0,0,2.92-2.92v-2A2.91,2.91,0,0,0,72.4,65.53Z"/><path class="cls-2" d="M46.33,39.46h2.56L48.23,42a.62.62,0,0,0,.27.69.59.59,0,0,0,.34.1.62.62,0,0,0,.4-.15l3.85-3.22h9.2a3.26,3.26,0,0,0,3.25-3.26V28.63a3.26,3.26,0,0,0-3.25-3.26H46.63a3.26,3.26,0,0,0-3.26,3.26V36.2A3,3,0,0,0,46.33,39.46Z"/></g></g></svg>