<svg xmlns="http://www.w3.org/2000/svg" viewBox="0 0 77.84 55.49"><defs><style>.cls-1{fill:#00a0a8;}</style></defs><g id="レイヤー_2" data-name="レイヤー 2"><g id="デザイン"><path class="cls-1" d="M75.58,0H2.26A2.27,2.27,0,0,0,0,2.26v51a2.27,2.27,0,0,0,2.26,2.26H75.58a2.27,2.27,0,0,0,2.26-2.26v-51A2.27,2.27,0,0,0,75.58,0Zm-.13,50.41a1.93,1.93,0,0,1,0,2.68c-1.28,1.29-3,0-3,0L49.1,30.51,46.51,33a8.34,8.34,0,0,1-11,.3l-5.13-4.43a1.68,1.68,0,0,1-.25.29L5.34,53.09s-1.88,1.08-2.95,0,0-2.68,0-2.68l25-24.1,0,0S3.34,5.65,2.78,5.08a1.81,1.81,0,0,1,0-2.69,2.33,2.33,0,0,1,3,0L38.1,30.3a4.33,4.33,0,0,0,5.64-.16L72.5,2.39a2.16,2.16,0,0,1,3,0,1.81,1.81,0,0,1,0,2.68L52,27.74Z"/></g></g></svg>