<svg xmlns="http://www.w3.org/2000/svg" viewBox="0 0 132.99 51.75"><defs><style>.cls-1{fill:#00a0a8;}</style></defs><g id="レイヤー_2" data-name="レイヤー 2"><g id="デザイン"><path class="cls-1" d="M2.47,49A7.17,7.17,0,0,1,0,43.28,11.61,11.61,0,0,1,.1,42l.14-1.25a.69.69,0,0,1,.22-.4.54.54,0,0,1,.4-.17H5.08a.47.47,0,0,1,.38.17.44.44,0,0,1,.1.4l-.15,1a4,4,0,0,0,0,.67,3.66,3.66,0,0,0,1.24,2.88,5,5,0,0,0,3.4,1.1A5.09,5.09,0,0,0,13.73,45a4.57,4.57,0,0,0,1.36-3.4A3.47,3.47,0,0,0,13.92,39,25.37,25.37,0,0,0,9.63,36.1a43.15,43.15,0,0,1-4-2.49,9.52,9.52,0,0,1-2.52-2.76,7.35,7.35,0,0,1-1-3.9q0-.35.09-1.2a9.58,9.58,0,0,1,3.5-6.52,11.33,11.33,0,0,1,7.33-2.39A9.65,9.65,0,0,1,19.72,19a7.44,7.44,0,0,1,2.46,5.87c0,.28,0,.75-.09,1.39l-.1,1a.77.77,0,0,1-.21.41.58.58,0,0,1-.41.17H17.15a.49.49,0,0,1-.38-.17.46.46,0,0,1-.1-.41l.1-.91a4.13,4.13,0,0,0,.05-.72,3.82,3.82,0,0,0-1.18-2.9,4.47,4.47,0,0,0-3.23-1.12A5,5,0,0,0,9.1,22.71a4.42,4.42,0,0,0-1.53,3,3.44,3.44,0,0,0-.05.62A3.37,3.37,0,0,0,8.7,28.93,23.58,23.58,0,0,0,13,31.74Q16,33.56,17.3,34.56a9.39,9.39,0,0,1,2.3,2.54,6.83,6.83,0,0,1,.95,3.64q0,.34-.09,1.2a9.89,9.89,0,0,1-3.57,6.71,11.68,11.68,0,0,1-7.64,2.49A10,10,0,0,1,2.47,49Z"/><path class="cls-1" d="M47.67,17.79l-.48,3.69a.77.77,0,0,1-.21.41.58.58,0,0,1-.41.17H39.38c-.13,0-.22.08-.28.24L35.69,50.18a.77.77,0,0,1-.21.41.57.57,0,0,1-.41.17H30.76a.47.47,0,0,1-.38-.17.46.46,0,0,1-.1-.41L33.73,22.3a.21.21,0,0,0-.24-.24h-6.9a.47.47,0,0,1-.38-.17.46.46,0,0,1-.1-.41l.43-3.69a.79.79,0,0,1,.22-.4.57.57,0,0,1,.41-.17h20C47.5,17.22,47.67,17.41,47.67,17.79Z"/><path class="cls-1" d="M70.48,21.84a.6.6,0,0,1-.43.17H57.16a.31.31,0,0,0-.29.24l-1.1,9c0,.16.06.24.19.24h8.29a.44.44,0,0,1,.38.17.44.44,0,0,1,.1.4l-.43,3.64a.86.86,0,0,1-.22.41.57.57,0,0,1-.41.17H55.38c-.16,0-.23.08-.23.24L54,45.73c0,.16.06.24.19.24H67.12a.5.5,0,0,1,.39.16.49.49,0,0,1,.09.41l-.43,3.64a.77.77,0,0,1-.21.41.58.58,0,0,1-.41.17h-18a.49.49,0,0,1-.38-.17.46.46,0,0,1-.1-.41l4-32.39a.73.73,0,0,1,.22-.4.54.54,0,0,1,.4-.17h18a.47.47,0,0,1,.38.17.44.44,0,0,1,.1.4l-.48,3.65A.53.53,0,0,1,70.48,21.84Z"/><path class="cls-1" d="M92.9,19.45a8.43,8.43,0,0,1,2.15,6.06c0,.32,0,.86-.09,1.63a11.24,11.24,0,0,1-3.35,7,9.66,9.66,0,0,1-6.9,2.68H79c-.12,0-.22.08-.28.24L77.14,50.18a.86.86,0,0,1-.22.41.57.57,0,0,1-.41.17H72.2a.47.47,0,0,1-.38-.17.46.46,0,0,1-.1-.41l4-32.43a.7.7,0,0,1,.24-.41.65.65,0,0,1,.43-.17H87.1A7.61,7.61,0,0,1,92.9,19.45ZM88.13,30.71a6.62,6.62,0,0,0,1.46-4.48,4.5,4.5,0,0,0-1-3.12A3.63,3.63,0,0,0,85.71,22H80.83a.31.31,0,0,0-.29.24l-1.2,10c0,.16.06.24.19.24h4.89A4.68,4.68,0,0,0,88.13,30.71Z"/><path class="cls-1" d="M129.32,31.79a25.82,25.82,0,0,1-.22,3.29,22.75,22.75,0,0,1-2.56,8.19,14.91,14.91,0,0,1-5.37,6.28,14.75,14.75,0,0,1-8.22,2.2,12.77,12.77,0,0,1-8.81-3,11,11,0,0,1-3.62-7.93,17.2,17.2,0,0,1-.07-1.9c0-.68,0-1.71.15-3.07a1,1,0,0,1,.33-.66.89.89,0,0,1,.62-.22h6.57a.78.78,0,0,1,.59.22.73.73,0,0,1,.15.66c0,.49-.08,1.19-.08,2.12a9.1,9.1,0,0,0,.08,1.39,5.54,5.54,0,0,0,1.46,3.69,4.66,4.66,0,0,0,3.51,1.35,5.87,5.87,0,0,0,3.61-1.17A7.16,7.16,0,0,0,119.82,40a22,22,0,0,0,1.24-5.55,25.49,25.49,0,0,0,.22-3.22,14.64,14.64,0,0,0-.22-2.71c-.58-2.82-2.17-4.23-4.75-4.23a5.07,5.07,0,0,0-2.48.73,1.14,1.14,0,0,1-.66.22.7.7,0,0,1-.59-.3l-2.77-3.8a.76.76,0,0,1-.22-.58.89.89,0,0,1,.29-.66L121.79,7.75c.25-.29.2-.44-.14-.44H105.71c-.53,0-.8-.29-.8-.88l.73-5.55A1.17,1.17,0,0,1,106,.26a.82.82,0,0,1,.62-.26h25.66a.71.71,0,0,1,.58.26.7.7,0,0,1,.15.62l-.73,5.84a1.42,1.42,0,0,1-.44,1L121,19.22c-.15.25-.1.39.14.44A8.5,8.5,0,0,1,126,22a10.41,10.41,0,0,1,2.7,4.86A17.73,17.73,0,0,1,129.32,31.79Z"/></g></g></svg>