<svg xmlns="http://www.w3.org/2000/svg" viewBox="0 0 132.24 51.75"><defs><style>.cls-1{fill:#00a0a8;}</style></defs><g id="レイヤー_2" data-name="レイヤー 2"><g id="デザイン"><path class="cls-1" d="M2.47,49.59A7.16,7.16,0,0,1,0,43.87a11.28,11.28,0,0,1,.1-1.29l.14-1.25a.72.72,0,0,1,.22-.41.54.54,0,0,1,.4-.17H5.08a.47.47,0,0,1,.38.17.46.46,0,0,1,.1.41l-.15,1a3.91,3.91,0,0,0,0,.67,3.64,3.64,0,0,0,1.24,2.87,4.93,4.93,0,0,0,3.4,1.1,5.05,5.05,0,0,0,3.72-1.34,4.54,4.54,0,0,0,1.36-3.4,3.48,3.48,0,0,0-1.17-2.66,25.81,25.81,0,0,0-4.29-2.85,39.2,39.2,0,0,1-4-2.49,9.36,9.36,0,0,1-2.52-2.75,7.41,7.41,0,0,1-1-3.91q0-.33.09-1.2a9.58,9.58,0,0,1,3.5-6.51,11.28,11.28,0,0,1,7.33-2.4,9.7,9.7,0,0,1,6.64,2.18,7.46,7.46,0,0,1,2.46,5.87c0,.29,0,.75-.09,1.39l-.1,1a.74.74,0,0,1-.21.4.54.54,0,0,1-.41.17H17.15a.44.44,0,0,1-.38-.17.44.44,0,0,1-.1-.4l.1-.91a4.13,4.13,0,0,0,.05-.72,3.82,3.82,0,0,0-1.18-2.9,4.47,4.47,0,0,0-3.23-1.13A5,5,0,0,0,9.1,23.29a4.46,4.46,0,0,0-1.53,3,3.36,3.36,0,0,0-.05.62A3.4,3.4,0,0,0,8.7,29.52,23.67,23.67,0,0,0,13,32.32Q16,34.15,17.3,35.15a9.39,9.39,0,0,1,2.3,2.54,6.78,6.78,0,0,1,.95,3.64q0,.33-.09,1.2a9.87,9.87,0,0,1-3.57,6.7,11.63,11.63,0,0,1-7.64,2.5A10,10,0,0,1,2.47,49.59Z"/><path class="cls-1" d="M47.67,18.38l-.48,3.69a.77.77,0,0,1-.21.41.57.57,0,0,1-.41.16H39.38c-.13,0-.22.08-.28.24L35.69,50.77a.74.74,0,0,1-.21.4.53.53,0,0,1-.41.17H30.76a.44.44,0,0,1-.38-.17.44.44,0,0,1-.1-.4l3.45-27.89a.21.21,0,0,0-.24-.24h-6.9a.46.46,0,0,1-.38-.16.46.46,0,0,1-.1-.41l.43-3.69a.78.78,0,0,1,.22-.41.55.55,0,0,1,.41-.17h20C47.5,17.8,47.67,18,47.67,18.38Z"/><path class="cls-1" d="M70.48,22.43a.67.67,0,0,1-.43.17H57.16a.31.31,0,0,0-.29.24l-1.1,9c0,.16.06.24.19.24h8.29a.47.47,0,0,1,.38.17.46.46,0,0,1,.1.41L64.3,36.3a.91.91,0,0,1-.22.41.56.56,0,0,1-.41.16H55.38c-.16,0-.23.08-.23.24L54,46.31c0,.16.06.24.19.24H67.12a.51.51,0,0,1,.39.17.48.48,0,0,1,.09.41l-.43,3.64a.69.69,0,0,1-.22.4.51.51,0,0,1-.4.17h-18a.46.46,0,0,1-.38-.17.44.44,0,0,1-.1-.4l4-32.39a.72.72,0,0,1,.22-.41.54.54,0,0,1,.4-.17h18a.47.47,0,0,1,.38.17.46.46,0,0,1,.1.41L70.67,22A.55.55,0,0,1,70.48,22.43Z"/><path class="cls-1" d="M92.9,20a8.44,8.44,0,0,1,2.15,6.06c0,.32,0,.87-.09,1.63a11.2,11.2,0,0,1-3.36,7.05,9.66,9.66,0,0,1-6.89,2.68H79c-.12,0-.22.08-.28.24L77.14,50.77a.83.83,0,0,1-.22.4.53.53,0,0,1-.41.17H72.2a.44.44,0,0,1-.38-.17.44.44,0,0,1-.1-.4l4-32.44a.73.73,0,0,1,.24-.41.62.62,0,0,1,.43-.16H87.1A7.64,7.64,0,0,1,92.9,20ZM88.13,31.29a6.64,6.64,0,0,0,1.46-4.48,4.46,4.46,0,0,0-1-3.11,3.6,3.6,0,0,0-2.85-1.15H80.82c-.12,0-.22.08-.28.24l-1.2,10c0,.16.06.24.19.24h4.89A4.65,4.65,0,0,0,88.13,31.29Z"/><path class="cls-1" d="M110.5,44.29c0,.1.11.15.25.15h17.84a.72.72,0,0,1,.58.25.7.7,0,0,1,.15.63l-.73,5.55a.8.8,0,0,1-.29.62,1,1,0,0,1-.66.26H100.08a.74.74,0,0,1-.58-.26.68.68,0,0,1-.15-.62l.66-5.63a2.07,2.07,0,0,1,.51-1.09q9.57-10.3,16.52-18.57t6.87-12.72a5.71,5.71,0,0,0-1.39-4,5,5,0,0,0-3.87-1.5,6.33,6.33,0,0,0-4.5,1.75A7.14,7.14,0,0,0,112,13.74l-.3,2.41a1.09,1.09,0,0,1-.32.62.84.84,0,0,1-.63.26H104.1a.69.69,0,0,1-.58-.26.68.68,0,0,1-.15-.62l.44-3.14a14.72,14.72,0,0,1,5.37-9.43A16.15,16.15,0,0,1,119.67,0q5.85,0,9.21,3.22a11.18,11.18,0,0,1,3.36,8.47,19,19,0,0,1-1.82,7.93,39,39,0,0,1-5.7,8.59q-3.3,4.09-11,12.43L110.61,44A.29.29,0,0,0,110.5,44.29Z"/></g></g></svg>