<svg xmlns="http://www.w3.org/2000/svg" viewBox="0 0 127.59 121.55"><defs><style>.cls-1{fill:#00a0a8;}.cls-2{fill:#fff;}.cls-3{fill:none;stroke:#fff;stroke-linecap:round;stroke-linejoin:round;stroke-width:3px;}</style></defs><g id="レイヤー_2" data-name="レイヤー 2"><g id="デザイン"><path class="cls-1" d="M5.19,71.29C3.91,73.92,4.88,75.13,7.36,74l15.48-7.25a41.84,41.84,0,0,0,27.49,1.21,40.66,40.66,0,0,1,24.4-22.27,32,32,0,0,0,1.89-10.81C76.62,15.6,59.47,0,38.31,0S0,15.6,0,34.85A33.2,33.2,0,0,0,11,59.29Zm116.64,50.26h0a1.44,1.44,0,0,0,.49-.08A1.36,1.36,0,0,1,121.83,121.55ZM51,82c0,19.24,17.16,34.84,38.32,34.84a41.49,41.49,0,0,0,15.47-3l15.48,7.24a4.76,4.76,0,0,0,.87.33l.23,0a3.09,3.09,0,0,0,.48.07,1.44,1.44,0,0,0,.49-.08l.11,0a1.1,1.1,0,0,0,.26-.18l.08-.1a1,1,0,0,0,.16-.36s0,0,0,0a2.44,2.44,0,0,0,0-.55l0-.18a3.46,3.46,0,0,0-.11-.52,1.42,1.42,0,0,0-.07-.22,6.07,6.07,0,0,0-.34-.83l-5.83-12a33.21,33.21,0,0,0,11-24.44c0-19.24-17.16-34.85-38.31-34.85a41.26,41.26,0,0,0-16.85,3.55A37.06,37.06,0,0,0,55.16,66.14,32.15,32.15,0,0,0,51,82Z"/><path class="cls-2" d="M43.42,46.71c2,.73,4.31,1.31,6.47,1.89l-2.12,5.15A86.21,86.21,0,0,1,37.68,49.6a5.51,5.51,0,0,0-1.81-.54c-6.35-.27-11.47-5.51-11.47-15.21,0-8.31,4.54-15.4,12.67-15.4,8.54,0,12.09,7.59,12.09,14.86,0,6.89-2.43,11.55-5.74,13.21Zm-11.9-13c0,5.77,1.89,9.77,5.32,9.77s5.19-4,5.19-9.89C42,28.15,40.3,24,36.84,24S31.52,28.42,31.52,33.7Z"/><path class="cls-2" d="M103,96.48H96l-1.73-6.93H87.4l-1.61,6.93H78.93l7.86-29.76h8.58Zm-9.55-12-1.31-6c-.39-1.77-.89-4.42-1.27-6.23h-.08c-.38,1.81-.88,4.54-1.23,6.23l-1.35,6Z"/><path class="cls-1" d="M70,55.32a11.9,11.9,0,0,1-2.58,6.27c.82,1,1.76,2.11,2.75,3.25H65.86c-.29-.35-.57-.66-.9-1.07a6.85,6.85,0,0,1-4.22,1.32c-3.72,0-5.5-2.29-5.5-4.8a5.2,5.2,0,0,1,3-4.75v-.08A5.46,5.46,0,0,1,57,52.05a4.49,4.49,0,0,1,4.85-4.44c2.56,0,4.38,1.56,4.38,4,0,1.63-.77,3.08-3.14,4.47v.11c.83,1,1.82,2.39,2.5,3.12a9.9,9.9,0,0,0,1.1-3.94Zm-6.78,6.23c-.94-1-2.19-2.55-3.36-4a2.69,2.69,0,0,0-1.06,2.13,2.45,2.45,0,0,0,2.51,2.57A2.66,2.66,0,0,0,63.26,61.55Zm-2.85-9.79a3.58,3.58,0,0,0,1,2.38A2.94,2.94,0,0,0,63,51.7c0-.75-.36-1.63-1.23-1.63S60.41,51,60.41,51.76Z"/><path class="cls-3" d="M70,55.32a11.9,11.9,0,0,1-2.58,6.27c.82,1,1.76,2.11,2.75,3.25H65.86c-.29-.35-.57-.66-.9-1.07a6.85,6.85,0,0,1-4.22,1.32c-3.72,0-5.5-2.29-5.5-4.8a5.2,5.2,0,0,1,3-4.75v-.08A5.46,5.46,0,0,1,57,52.05a4.49,4.49,0,0,1,4.85-4.44c2.56,0,4.38,1.56,4.38,4,0,1.63-.77,3.08-3.14,4.47v.11c.83,1,1.82,2.39,2.5,3.12a9.9,9.9,0,0,0,1.1-3.94Zm-6.78,6.23c-.94-1-2.19-2.55-3.36-4a2.69,2.69,0,0,0-1.06,2.13,2.45,2.45,0,0,0,2.51,2.57A2.66,2.66,0,0,0,63.26,61.55Zm-2.85-9.79a3.58,3.58,0,0,0,1,2.38A2.94,2.94,0,0,0,63,51.7c0-.75-.36-1.63-1.23-1.63S60.41,51,60.41,51.76Z"/><path class="cls-1" d="M70,55.32a11.9,11.9,0,0,1-2.58,6.27c.82,1,1.76,2.11,2.75,3.25H65.86c-.29-.35-.57-.66-.9-1.07a6.85,6.85,0,0,1-4.22,1.32c-3.72,0-5.5-2.29-5.5-4.8a5.2,5.2,0,0,1,3-4.75v-.08A5.46,5.46,0,0,1,57,52.05a4.49,4.49,0,0,1,4.85-4.44c2.56,0,4.38,1.56,4.38,4,0,1.63-.77,3.08-3.14,4.47v.11c.83,1,1.82,2.39,2.5,3.12a9.9,9.9,0,0,0,1.1-3.94Zm-6.78,6.23c-.94-1-2.19-2.55-3.36-4a2.69,2.69,0,0,0-1.06,2.13,2.45,2.45,0,0,0,2.51,2.57A2.66,2.66,0,0,0,63.26,61.55Zm-2.85-9.79a3.58,3.58,0,0,0,1,2.38A2.94,2.94,0,0,0,63,51.7c0-.75-.36-1.63-1.23-1.63S60.41,51,60.41,51.76Z"/></g></g></svg>