<svg xmlns="http://www.w3.org/2000/svg" viewBox="0 0 58.67 84.16"><defs><style>.cls-1{fill:#00a0a8;}</style></defs><g id="レイヤー_2" data-name="レイヤー 2"><g id="デザイン"><path class="cls-1" d="M3.41,0A3.43,3.43,0,0,0,0,3.41V80.75a3.43,3.43,0,0,0,3.41,3.41H55.26a3.42,3.42,0,0,0,3.41-3.41V3.41A3.42,3.42,0,0,0,55.26,0ZM22.29,6.68c0-.42,1.54-.77,3.41-.77H33c1.88,0,3.41.35,3.41.77s-1.53.78-3.41.78H25.7C23.83,7.46,22.29,7.11,22.29,6.68Zm7,74c-2.07,0-3.76-1.41-3.76-3.13s1.69-3.14,3.76-3.14,3.75,1.4,3.75,3.14S31.41,80.71,29.33,80.71ZM52.24,67.88a3.42,3.42,0,0,1-3.42,3.41h-39a3.42,3.42,0,0,1-3.42-3.41V16.78a3.43,3.43,0,0,1,3.42-3.41h39a3.43,3.43,0,0,1,3.42,3.41Z"/><path class="cls-1" d="M39.69,22.3h-20a1.77,1.77,0,0,0-1.77,1.77v37.3a1.77,1.77,0,0,0,1.77,1.77h7.22v-5.6a.33.33,0,0,1,.33-.33h4.89a.33.33,0,0,1,.33.33v5.6h7.22a1.77,1.77,0,0,0,1.77-1.77V24.07A1.77,1.77,0,0,0,39.69,22.3ZM25.37,50.75a.17.17,0,0,1-.16.17h-3.1a.17.17,0,0,1-.16-.17V47.66a.16.16,0,0,1,.16-.16h3.1a.16.16,0,0,1,.16.16Zm0-7.1a.16.16,0,0,1-.16.16h-3.1a.16.16,0,0,1-.16-.16v-3.1a.16.16,0,0,1,.16-.16h3.1a.16.16,0,0,1,.16.16Zm0-7.12a.16.16,0,0,1-.16.17h-3.1a.16.16,0,0,1-.16-.17V33.44a.16.16,0,0,1,.16-.16h3.1a.16.16,0,0,1,.16.16Zm0-7.11a.16.16,0,0,1-.16.17h-3.1a.16.16,0,0,1-.16-.17V26.33a.16.16,0,0,1,.16-.16h3.1a.16.16,0,0,1,.16.16Zm6,21.33a.18.18,0,0,1-.17.17H28.15a.17.17,0,0,1-.16-.17V47.66a.16.16,0,0,1,.16-.16h3.09a.17.17,0,0,1,.17.16Zm0-7.1a.17.17,0,0,1-.17.16H28.15a.16.16,0,0,1-.16-.16v-3.1a.16.16,0,0,1,.16-.16h3.09a.17.17,0,0,1,.17.16Zm0-7.12a.17.17,0,0,1-.17.17H28.15a.16.16,0,0,1-.16-.17V33.44a.16.16,0,0,1,.16-.16h3.09a.17.17,0,0,1,.17.16Zm0-7.11a.17.17,0,0,1-.17.17H28.15a.16.16,0,0,1-.16-.17V26.33a.16.16,0,0,1,.16-.16h3.09a.17.17,0,0,1,.17.16Zm6,21.33a.17.17,0,0,1-.16.17H34.19a.18.18,0,0,1-.17-.17V47.66a.17.17,0,0,1,.17-.16h3.09a.16.16,0,0,1,.16.16Zm0-7.1a.16.16,0,0,1-.16.16H34.19a.17.17,0,0,1-.17-.16v-3.1a.17.17,0,0,1,.17-.16h3.09a.16.16,0,0,1,.16.16Zm0-7.12a.16.16,0,0,1-.16.17H34.19a.17.17,0,0,1-.17-.17V33.44a.17.17,0,0,1,.17-.16h3.09a.16.16,0,0,1,.16.16Zm0-7.11a.16.16,0,0,1-.16.17H34.19a.17.17,0,0,1-.17-.17V26.33a.17.17,0,0,1,.17-.16h3.09a.16.16,0,0,1,.16.16Z"/></g></g></svg>