<svg xmlns="http://www.w3.org/2000/svg" viewBox="0 0 89.44 102.11"><defs><style>.cls-1{fill:#fff;}.cls-2,.cls-4,.cls-6{fill:none;stroke-linecap:round;stroke-miterlimit:10;}.cls-2,.cls-3,.cls-4{stroke:#00a0a8;}.cls-2{stroke-width:4.02px;}.cls-3,.cls-5{fill:#00a0a8;}.cls-3{stroke-linejoin:round;}.cls-3,.cls-4,.cls-6{stroke-width:2.73px;}.cls-6{stroke:#fff;}</style></defs><g id="レイヤー_2" data-name="レイヤー 2"><g id="デザイン"><path class="cls-1" d="M67.63,75.13c-2.8-12.08,5-23.21.49-36.06A23.41,23.41,0,0,0,24,54.62c4.53,12.85,17.59,16.63,23,27.8Z"/><line class="cls-2" x1="20.18" y1="23.81" x2="11.93" y2="16.73"/><line class="cls-2" x1="12.69" y1="39.43" x2="2.01" y2="37.43"/><line class="cls-2" x1="14.02" y1="56.71" x2="3.77" y2="60.32"/><line class="cls-2" x1="51.76" y1="12.69" x2="53.76" y2="2.01"/><line class="cls-2" x1="67.39" y1="20.18" x2="74.46" y2="11.93"/><line class="cls-2" x1="77.18" y1="34.48" x2="87.43" y2="30.87"/><path class="cls-3" d="M67.63,75.13c-2.8-12.08,5-23.21.49-36.06A23.41,23.41,0,0,0,24,54.62c4.53,12.85,17.59,16.63,23,27.8Z"/><line class="cls-4" x1="49.56" y1="86.44" x2="68.09" y2="79.91"/><line class="cls-4" x1="51.11" y1="90.84" x2="69.64" y2="84.32"/><line class="cls-4" x1="52.66" y1="95.24" x2="71.19" y2="88.72"/><path class="cls-5" d="M54.55,97.92a.77.77,0,0,0-.22,1.43l4.84,2.41a4.13,4.13,0,0,0,3.16.07l5.44-1.92a4.17,4.17,0,0,0,2.43-2L72.46,93c.3-.64-.35-1.23-1.06-1Z"/><path class="cls-6" d="M40.22,30.31A17.56,17.56,0,0,1,62.58,41"/></g></g></svg>