<svg xmlns="http://www.w3.org/2000/svg" viewBox="0 0 98.77 91.94"><defs><style>.cls-1{fill:#00a0a8;}.cls-2{fill:#fff;}.cls-3{fill:none;stroke:#fff;stroke-width:3.23px;}</style></defs><g id="レイヤー_2" data-name="レイヤー 2"><g id="デザイン"><path class="cls-1" d="M35,0A7.55,7.55,0,0,0,27.5,7.53V63.74A7.55,7.55,0,0,0,35,71.27H91.24a7.55,7.55,0,0,0,7.53-7.53V7.53A7.55,7.55,0,0,0,91.24,0ZM86.6,4.61A2.36,2.36,0,1,1,84.25,7,2.36,2.36,0,0,1,86.6,4.61Zm-5.83,0A2.36,2.36,0,1,1,78.4,7,2.36,2.36,0,0,1,80.77,4.61Zm-5.84,0A2.36,2.36,0,1,1,72.56,7,2.36,2.36,0,0,1,74.93,4.61Zm15.3,51.3a7.55,7.55,0,0,1-7.53,7.53H43.57A7.55,7.55,0,0,1,36,55.91V21.72a7.55,7.55,0,0,1,7.53-7.53H82.7a7.55,7.55,0,0,1,7.53,7.53Z"/><rect class="cls-2" x="36.04" y="14.19" width="54.19" height="49.24"/><rect class="cls-1" x="65.1" y="23.66" width="18.75" height="18.75"/><rect class="cls-1" x="42.2" y="27.76" width="19.19" height="3.06"/><rect class="cls-1" x="42.2" y="35.25" width="19.19" height="3.05"/><rect class="cls-1" x="42.2" y="46.33" width="41.65" height="5.27"/><path class="cls-3" d="M21.91,82.81,44.3,60.42l4.28-17.09L31.51,47.62,9.13,70ZM40.39,47.57l4,4-1.78,7.14-9.31-9.31ZM2.13,77l4.5-4.5L19.42,85.3l-4.5,4.5a1.79,1.79,0,0,1-2.53,0L2.13,79.55A1.82,1.82,0,0,1,2.13,77Z"/><path class="cls-1" d="M21.91,82.81,44.3,60.42l4.28-17.09L31.51,47.62,9.13,70ZM40.39,47.57l4,4-1.78,7.14-9.31-9.31ZM2.13,77l4.5-4.5L19.42,85.3l-4.5,4.5a1.79,1.79,0,0,1-2.53,0L2.13,79.55A1.82,1.82,0,0,1,2.13,77Z"/></g></g></svg>