<svg xmlns="http://www.w3.org/2000/svg" viewBox="0 0 86.7 60.94"><defs><style>.cls-1{fill:#00a0a8;}</style></defs><g id="レイヤー_2" data-name="レイヤー 2"><g id="デザイン"><path class="cls-1" d="M43.35,43.2a8.44,8.44,0,1,1,8.44-8.44A8.45,8.45,0,0,1,43.35,43.2Z"/><path class="cls-1" d="M67.62,10.55,55.77,0H30.94L19.08,10.55H16.19V5.33H6.8v5.22H0V60.94H86.7V10.55ZM19.29,23H4.06V14.55H19.29ZM43.35,54.71a20,20,0,1,1,19.94-20A19.95,19.95,0,0,1,43.35,54.71ZM70.53,41.55a2.71,2.71,0,1,1,2.71-2.7A2.7,2.7,0,0,1,70.53,41.55Zm0-12.62a4.74,4.74,0,1,1,4.74-4.74A4.74,4.74,0,0,1,70.53,28.93Z"/></g></g></svg>