<svg xmlns="http://www.w3.org/2000/svg" viewBox="0 0 116.46 77.53"><defs><style>.cls-1,.cls-2{fill:#00a0a8;}.cls-2{stroke:#00a0a8;stroke-width:1.46px;}</style></defs><g id="レイヤー_2" data-name="レイヤー 2"><g id="デザイン"><path class="cls-1" d="M28.76,77.53a2.41,2.41,0,0,0,2.41-2.42V44.26a2.4,2.4,0,0,0-2.41-2.41h-14a2.41,2.41,0,0,0-2.41,2.41V75.11a2.41,2.41,0,0,0,2.41,2.42Z"/><path class="cls-1" d="M84.9,77.53a2.4,2.4,0,0,0,2.4-2.42V51.58a2.4,2.4,0,0,0-2.4-2.41h-14a2.42,2.42,0,0,0-2.42,2.41V75.11a2.42,2.42,0,0,0,2.42,2.42Z"/><path class="cls-1" d="M57.42,77.53a2.41,2.41,0,0,0,2.41-2.42V33.8a2.4,2.4,0,0,0-2.41-2.41h-14A2.4,2.4,0,0,0,41,33.8V75.11a2.41,2.41,0,0,0,2.41,2.42Z"/><path class="cls-1" d="M113.53,77.53A2.41,2.41,0,0,0,116,75.11V25.45A2.41,2.41,0,0,0,113.53,23h-14a2.41,2.41,0,0,0-2.41,2.43V75.11a2.41,2.41,0,0,0,2.41,2.42Z"/><path class="cls-2" d="M58.05,7.83a1.22,1.22,0,0,0-1.16-.08l-55.46,25a1.21,1.21,0,0,0,.5,2.31A1.34,1.34,0,0,0,2.44,35L57.28,10.23,79,24.73a1.25,1.25,0,0,0,1.28,0L113.19,5.54l-1.54,5.14,1.39.41,2-6.71a1.18,1.18,0,0,0,.31-1l.17-.58L115,2.63a1.16,1.16,0,0,0-1.06-.25L107,.87l-.31,1.4L112,3.45,79.74,22.3Z"/></g></g></svg>