<svg xmlns="http://www.w3.org/2000/svg" viewBox="0 0 65.06 76.83"><defs><style>.cls-1{fill:#00a0a8;}</style></defs><g id="レイヤー_2" data-name="レイヤー 2"><g id="デザイン"><path class="cls-1" d="M12.55,71H54.94v3.74a2.29,2.29,0,0,1-2.44,2.12H2.43A2.29,2.29,0,0,1,0,74.71V11.89A2.29,2.29,0,0,1,2.43,9.77H6.21V64.94A6.19,6.19,0,0,0,12.55,71Z"/><path class="cls-1" d="M63.41,9.85l-9.9-8.59V8.75c0,.6.67,1.1,1.46,1.1Z"/><path class="cls-1" d="M55,12.51a4,4,0,0,1-4.12-3.76V0H12.55a2.29,2.29,0,0,0-2.43,2.11V64.94a2.29,2.29,0,0,0,2.43,2.12H62.63a2.29,2.29,0,0,0,2.43-2.12V12.51ZM52.18,49.79H23c-.76,0-1.39-1.13-1.39-2.51s.63-2.52,1.39-2.52H52.18c.77,0,1.39,1.12,1.39,2.52S53,49.79,52.18,49.79Zm0-11.24H23c-.76,0-1.39-1.12-1.39-2.51s.63-2.51,1.39-2.51H52.18c.77,0,1.39,1.12,1.39,2.51S53,38.55,52.18,38.55Zm0-11.23H23c-.76,0-1.39-1.12-1.39-2.51S22.24,22.3,23,22.3H52.18c.77,0,1.39,1.12,1.39,2.51S53,27.32,52.18,27.32Z"/></g></g></svg>